<svg width="24" height="24" viewBox="0 0 24 24" fill="none" xmlns="http://www.w3.org/2000/svg">
<mask id="mask0_46_164" style="mask-type:alpha" maskUnits="userSpaceOnUse" x="1" y="4" width="22" height="15">
<rect x="1.5" y="4.5" width="21" height="14.25" rx="1.05756" fill="url(#paint0_linear_46_164)"/>
</mask>
<g mask="url(#mask0_46_164)">
<rect x="1.5" y="7.01526" width="21" height="11.7347" rx="1.05756" fill="url(#paint1_linear_46_164)"/>
<g filter="url(#filter0_dii_46_164)">
<rect x="1.5" y="4.5" width="21" height="11.7347" rx="1.05756" fill="url(#paint2_linear_46_164)"/>
</g>
<g filter="url(#filter1_d_46_164)">
<path fill-rule="evenodd" clip-rule="evenodd" d="M21.6595 9.52322C19.341 9.52236 17.4618 7.647 17.4611 5.3335H20.6019C21.186 5.3335 21.6595 5.80698 21.6595 6.39105L21.6595 9.52322Z" fill="white"/>
</g>
<g filter="url(#filter2_d_46_164)">
<path fill-rule="evenodd" clip-rule="evenodd" d="M2.34148 9.52899L2.34148 6.39948C2.34148 5.81541 2.81496 5.34193 3.39903 5.34193L6.54075 5.34193C6.53865 7.6545 4.65944 9.5286 2.34148 9.52899Z" fill="white"/>
</g>
<g filter="url(#filter3_d_46_164)">
<path fill-rule="evenodd" clip-rule="evenodd" d="M2.33985 11.2021C2.34032 11.2021 2.34079 11.2021 2.34126 11.2021C4.66086 11.2021 6.54126 13.0784 6.54126 15.393C6.54126 15.3943 6.54126 15.3956 6.54126 15.3969L3.39741 15.3969C2.81334 15.3969 2.33985 14.9234 2.33985 14.3393L2.33985 11.2021Z" fill="white"/>
</g>
<g filter="url(#filter4_d_46_164)">
<path fill-rule="evenodd" clip-rule="evenodd" d="M21.6611 11.2015L21.6611 14.3361C21.6611 14.9202 21.1876 15.3937 20.6035 15.3937L17.4608 15.3937C17.4608 15.3933 17.4608 15.3929 17.4608 15.3925C17.4608 13.0779 19.3412 11.2015 21.6609 11.2015C21.661 11.2015 21.661 11.2015 21.6611 11.2015Z" fill="white"/>
</g>
<g filter="url(#filter5_d_46_164)">
<rect x="8.21841" y="6.59283" width="7.55999" height="7.54371" rx="3.77186" fill="white"/>
</g>
<path d="M10.7401 12.2809H11.4106V10.5518L10.7401 10.2168V12.2809Z" fill="black"/>
<path d="M12.6957 9.59416L11.7195 9.35315C11.5056 9.27908 11.4105 9.21164 11.4105 8.97616V8.27081H10.7388V8.99827C10.7388 9.47034 10.8295 9.81748 11.537 9.99326L12.5143 10.2343H12.5233C12.7304 10.3061 12.8233 10.3747 12.8233 10.608V12.2608H13.495V10.5936C13.495 9.86502 13.167 9.70914 12.6968 9.59858" fill="black"/>
</g>
<g filter="url(#filter6_ii_46_164)">
<path d="M12 18C12 14.6863 14.6863 12 18 12C21.3137 12 24 14.6863 24 18C24 21.3137 21.3137 24 18 24C14.6863 24 12 21.3137 12 18Z" fill="url(#paint3_linear_46_164)"/>
</g>
<g filter="url(#filter7_d_46_164)">
<path d="M14.5714 17.9999C14.5714 16.1063 16.1065 14.5713 18 14.5713C19.8936 14.5713 21.4286 16.1063 21.4286 17.9999C21.4286 19.8934 19.8936 21.4284 18 21.4284C16.1065 21.4284 14.5714 19.8934 14.5714 17.9999Z" fill="url(#paint4_linear_46_164)"/>
</g>
<g filter="url(#filter8_d_46_164)">
<path d="M18.0001 15.4286C18.423 15.4286 18.8393 15.5329 19.2123 15.7322C19.5852 15.9316 19.9033 16.2198 20.1382 16.5714C20.3731 16.923 20.5177 17.3271 20.5592 17.748C20.6006 18.1688 20.5376 18.5934 20.3758 18.9841C20.214 19.3747 19.9583 19.7195 19.6314 19.9878C19.3045 20.256 18.9165 20.4395 18.5018 20.522C18.087 20.6045 17.6583 20.5835 17.2537 20.4607C16.849 20.338 16.4809 20.1173 16.1819 19.8183L18.0001 18V15.4286Z" fill="white"/>
</g>
<defs>
<filter id="filter0_dii_46_164" x="-0.658381" y="2.34162" width="25.3167" height="16.0514" filterUnits="userSpaceOnUse" color-interpolation-filters="sRGB">
<feFlood flood-opacity="0" result="BackgroundImageFix"/>
<feColorMatrix in="SourceAlpha" type="matrix" values="0 0 0 0 0 0 0 0 0 0 0 0 0 0 0 0 0 0 127 0" result="hardAlpha"/>
<feOffset dy="0.634534"/>
<feGaussianBlur stdDeviation="0.423022"/>
<feComposite in2="hardAlpha" operator="out"/>
<feColorMatrix type="matrix" values="0 0 0 0 0 0 0 0 0 0 0 0 0 0 0 0 0 0 0.15 0"/>
<feBlend mode="normal" in2="BackgroundImageFix" result="effect1_dropShadow_46_164"/>
<feBlend mode="normal" in="SourceGraphic" in2="effect1_dropShadow_46_164" result="shape"/>
<feColorMatrix in="SourceAlpha" type="matrix" values="0 0 0 0 0 0 0 0 0 0 0 0 0 0 0 0 0 0 127 0" result="hardAlpha"/>
<feOffset dx="2.15838" dy="-2.15838"/>
<feGaussianBlur stdDeviation="2.15838"/>
<feComposite in2="hardAlpha" operator="arithmetic" k2="-1" k3="1"/>
<feColorMatrix type="matrix" values="0 0 0 0 0 0 0 0 0 0.445085 0 0 0 0 0.296723 0 0 0 0.5 0"/>
<feBlend mode="normal" in2="shape" result="effect2_innerShadow_46_164"/>
<feColorMatrix in="SourceAlpha" type="matrix" values="0 0 0 0 0 0 0 0 0 0 0 0 0 0 0 0 0 0 127 0" result="hardAlpha"/>
<feOffset dx="-2.15838" dy="2.15838"/>
<feGaussianBlur stdDeviation="2.15838"/>
<feComposite in2="hardAlpha" operator="arithmetic" k2="-1" k3="1"/>
<feColorMatrix type="matrix" values="0 0 0 0 0.471452 0 0 0 0 1 0 0 0 0 0.822745 0 0 0 0.5 0"/>
<feBlend mode="normal" in2="effect2_innerShadow_46_164" result="effect3_innerShadow_46_164"/>
</filter>
<filter id="filter1_d_46_164" x="15.6526" y="3.52501" width="7.81537" height="7.80667" filterUnits="userSpaceOnUse" color-interpolation-filters="sRGB">
<feFlood flood-opacity="0" result="BackgroundImageFix"/>
<feColorMatrix in="SourceAlpha" type="matrix" values="0 0 0 0 0 0 0 0 0 0 0 0 0 0 0 0 0 0 127 0" result="hardAlpha"/>
<feOffset/>
<feGaussianBlur stdDeviation="0.904244"/>
<feComposite in2="hardAlpha" operator="out"/>
<feColorMatrix type="matrix" values="0 0 0 0 0 0 0 0 0 0 0 0 0 0 0 0 0 0 0.25 0"/>
<feBlend mode="normal" in2="BackgroundImageFix" result="effect1_dropShadow_46_164"/>
<feBlend mode="normal" in="SourceGraphic" in2="effect1_dropShadow_46_164" result="shape"/>
</filter>
<filter id="filter2_d_46_164" x="0.532989" y="3.53343" width="7.81626" height="7.80405" filterUnits="userSpaceOnUse" color-interpolation-filters="sRGB">
<feFlood flood-opacity="0" result="BackgroundImageFix"/>
<feColorMatrix in="SourceAlpha" type="matrix" values="0 0 0 0 0 0 0 0 0 0 0 0 0 0 0 0 0 0 127 0" result="hardAlpha"/>
<feOffset/>
<feGaussianBlur stdDeviation="0.904244"/>
<feComposite in2="hardAlpha" operator="out"/>
<feColorMatrix type="matrix" values="0 0 0 0 0 0 0 0 0 0 0 0 0 0 0 0 0 0 0.25 0"/>
<feBlend mode="normal" in2="BackgroundImageFix" result="effect1_dropShadow_46_164"/>
<feBlend mode="normal" in="SourceGraphic" in2="effect1_dropShadow_46_164" result="shape"/>
</filter>
<filter id="filter3_d_46_164" x="0.531371" y="9.39354" width="7.81838" height="7.8118" filterUnits="userSpaceOnUse" color-interpolation-filters="sRGB">
<feFlood flood-opacity="0" result="BackgroundImageFix"/>
<feColorMatrix in="SourceAlpha" type="matrix" values="0 0 0 0 0 0 0 0 0 0 0 0 0 0 0 0 0 0 127 0" result="hardAlpha"/>
<feOffset/>
<feGaussianBlur stdDeviation="0.904244"/>
<feComposite in2="hardAlpha" operator="out"/>
<feColorMatrix type="matrix" values="0 0 0 0 0 0 0 0 0 0 0 0 0 0 0 0 0 0 0.25 0"/>
<feBlend mode="normal" in2="BackgroundImageFix" result="effect1_dropShadow_46_164"/>
<feBlend mode="normal" in="SourceGraphic" in2="effect1_dropShadow_46_164" result="shape"/>
</filter>
<filter id="filter4_d_46_164" x="15.6523" y="9.39305" width="7.81731" height="7.80911" filterUnits="userSpaceOnUse" color-interpolation-filters="sRGB">
<feFlood flood-opacity="0" result="BackgroundImageFix"/>
<feColorMatrix in="SourceAlpha" type="matrix" values="0 0 0 0 0 0 0 0 0 0 0 0 0 0 0 0 0 0 127 0" result="hardAlpha"/>
<feOffset/>
<feGaussianBlur stdDeviation="0.904244"/>
<feComposite in2="hardAlpha" operator="out"/>
<feColorMatrix type="matrix" values="0 0 0 0 0 0 0 0 0 0 0 0 0 0 0 0 0 0 0.25 0"/>
<feBlend mode="normal" in2="BackgroundImageFix" result="effect1_dropShadow_46_164"/>
<feBlend mode="normal" in="SourceGraphic" in2="effect1_dropShadow_46_164" result="shape"/>
</filter>
<filter id="filter5_d_46_164" x="6.40993" y="4.78435" width="11.177" height="11.1607" filterUnits="userSpaceOnUse" color-interpolation-filters="sRGB">
<feFlood flood-opacity="0" result="BackgroundImageFix"/>
<feColorMatrix in="SourceAlpha" type="matrix" values="0 0 0 0 0 0 0 0 0 0 0 0 0 0 0 0 0 0 127 0" result="hardAlpha"/>
<feOffset/>
<feGaussianBlur stdDeviation="0.904244"/>
<feComposite in2="hardAlpha" operator="out"/>
<feColorMatrix type="matrix" values="0 0 0 0 0 0 0 0 0 0 0 0 0 0 0 0 0 0 0.25 0"/>
<feBlend mode="normal" in2="BackgroundImageFix" result="effect1_dropShadow_46_164"/>
<feBlend mode="normal" in="SourceGraphic" in2="effect1_dropShadow_46_164" result="shape"/>
</filter>
<filter id="filter6_ii_46_164" x="11.3778" y="11.3778" width="13.2444" height="13.2444" filterUnits="userSpaceOnUse" color-interpolation-filters="sRGB">
<feFlood flood-opacity="0" result="BackgroundImageFix"/>
<feBlend mode="normal" in="SourceGraphic" in2="BackgroundImageFix" result="shape"/>
<feColorMatrix in="SourceAlpha" type="matrix" values="0 0 0 0 0 0 0 0 0 0 0 0 0 0 0 0 0 0 127 0" result="hardAlpha"/>
<feOffset dx="0.622217" dy="-0.622217"/>
<feGaussianBlur stdDeviation="0.933326"/>
<feComposite in2="hardAlpha" operator="arithmetic" k2="-1" k3="1"/>
<feColorMatrix type="matrix" values="0 0 0 0 0.774967 0 0 0 0 0.592622 0 0 0 0 0 0 0 0 0.8 0"/>
<feBlend mode="normal" in2="shape" result="effect1_innerShadow_46_164"/>
<feColorMatrix in="SourceAlpha" type="matrix" values="0 0 0 0 0 0 0 0 0 0 0 0 0 0 0 0 0 0 127 0" result="hardAlpha"/>
<feOffset dx="-0.622217" dy="0.622217"/>
<feGaussianBlur stdDeviation="0.933326"/>
<feComposite in2="hardAlpha" operator="arithmetic" k2="-1" k3="1"/>
<feColorMatrix type="matrix" values="0 0 0 0 1 0 0 0 0 0.874341 0 0 0 0 0.465951 0 0 0 1 0"/>
<feBlend mode="normal" in2="effect1_innerShadow_46_164" result="effect2_innerShadow_46_164"/>
</filter>
<filter id="filter7_d_46_164" x="13.327" y="13.9491" width="9.34602" height="9.34599" filterUnits="userSpaceOnUse" color-interpolation-filters="sRGB">
<feFlood flood-opacity="0" result="BackgroundImageFix"/>
<feColorMatrix in="SourceAlpha" type="matrix" values="0 0 0 0 0 0 0 0 0 0 0 0 0 0 0 0 0 0 127 0" result="hardAlpha"/>
<feOffset dy="0.622217"/>
<feGaussianBlur stdDeviation="0.622217"/>
<feComposite in2="hardAlpha" operator="out"/>
<feColorMatrix type="matrix" values="0 0 0 0 0 0 0 0 0 0 0 0 0 0 0 0 0 0 0.1 0"/>
<feBlend mode="normal" in2="BackgroundImageFix" result="effect1_dropShadow_46_164"/>
<feBlend mode="normal" in="SourceGraphic" in2="effect1_dropShadow_46_164" result="shape"/>
</filter>
<filter id="filter8_d_46_164" x="14.9374" y="14.8064" width="6.87858" height="7.63175" filterUnits="userSpaceOnUse" color-interpolation-filters="sRGB">
<feFlood flood-opacity="0" result="BackgroundImageFix"/>
<feColorMatrix in="SourceAlpha" type="matrix" values="0 0 0 0 0 0 0 0 0 0 0 0 0 0 0 0 0 0 127 0" result="hardAlpha"/>
<feOffset dy="0.622217"/>
<feGaussianBlur stdDeviation="0.622217"/>
<feComposite in2="hardAlpha" operator="out"/>
<feColorMatrix type="matrix" values="0 0 0 0 0 0 0 0 0 0 0 0 0 0 0 0 0 0 0.1 0"/>
<feBlend mode="normal" in2="BackgroundImageFix" result="effect1_dropShadow_46_164"/>
<feBlend mode="normal" in="SourceGraphic" in2="effect1_dropShadow_46_164" result="shape"/>
</filter>
<linearGradient id="paint0_linear_46_164" x1="2.66956" y1="4.5" x2="10.2139" y2="24.779" gradientUnits="userSpaceOnUse">
<stop stop-color="#04C483"/>
<stop offset="1" stop-color="#03895C"/>
</linearGradient>
<linearGradient id="paint1_linear_46_164" x1="2.66956" y1="7.01526" x2="7.99395" y2="24.3949" gradientUnits="userSpaceOnUse">
<stop stop-color="#04C483"/>
<stop offset="1" stop-color="#03895C"/>
</linearGradient>
<linearGradient id="paint2_linear_46_164" x1="2.66956" y1="4.5" x2="7.99395" y2="21.8796" gradientUnits="userSpaceOnUse">
<stop stop-color="#04C483"/>
<stop offset="1" stop-color="#03895C"/>
</linearGradient>
<linearGradient id="paint3_linear_46_164" x1="5.44328" y1="-0.841933" x2="20.8489" y2="30.5618" gradientUnits="userSpaceOnUse">
<stop stop-color="#FFDC69"/>
<stop offset="1" stop-color="#FFC508"/>
</linearGradient>
<linearGradient id="paint4_linear_46_164" x1="11.1484" y1="11.2281" x2="16.338" y2="19.0961" gradientUnits="userSpaceOnUse">
<stop stop-color="#FFFCF3"/>
<stop offset="1"/>
</linearGradient>
</defs>
</svg>
