<svg width="24" height="24" viewBox="0 0 24 24" fill="none" xmlns="http://www.w3.org/2000/svg">
<g filter="url(#filter0_ii_46_682)">
<path d="M1.875 6.51562C1.875 5.81664 2.43984 5.25 3.13662 5.25L20.7992 5.25C21.496 5.25 22.0609 5.81664 22.0609 6.51562L22.0609 17.4844C22.0609 18.1834 21.496 18.75 20.7992 18.75H3.13662C2.43984 18.75 1.875 18.1834 1.875 17.4844L1.875 6.51562Z" fill="url(#paint0_linear_46_682)"/>
</g>
<path fill-rule="evenodd" clip-rule="evenodd" d="M15.4514 7.78143C15.4514 7.43194 15.7338 7.14862 16.0822 7.14862H19.4465C19.7949 7.14862 20.0773 7.43194 20.0773 7.78143C20.0773 8.13093 19.7949 8.41425 19.4465 8.41425H16.0822C15.7338 8.41425 15.4514 8.13093 15.4514 7.78143Z" fill="white"/>
<rect x="3.55957" y="15.2423" width="2.83887" height="2.06927" rx="0.738175" fill="#FFECB0"/>
<rect x="3.55957" y="15.2423" width="2.83887" height="2.06927" rx="0.738175" fill="url(#paint1_linear_46_682)"/>
<path d="M13.976 10.7074L10.6353 9.87382C9.90441 9.61793 9.57734 9.38474 9.57584 8.56102L9.5694 5.25L7.27698 5.25465L7.2836 8.64266C7.28674 10.2881 7.59968 11.4988 10.0218 12.1226L13.3626 12.9564C13.3732 12.9591 13.3839 12.9616 13.3945 12.9643C14.102 13.2157 14.4201 13.454 14.4217 14.2651L14.4306 18.75L16.723 18.7454L16.714 14.1876C16.7088 11.6463 15.5826 11.1087 13.9755 10.7078L13.976 10.7074Z" fill="#1ED68D"/>
<defs>
<filter id="filter0_ii_46_682" x="-0.252352" y="3.12265" width="24.4406" height="17.7547" filterUnits="userSpaceOnUse" color-interpolation-filters="sRGB">
<feFlood flood-opacity="0" result="BackgroundImageFix"/>
<feBlend mode="normal" in="SourceGraphic" in2="BackgroundImageFix" result="shape"/>
<feColorMatrix in="SourceAlpha" type="matrix" values="0 0 0 0 0 0 0 0 0 0 0 0 0 0 0 0 0 0 127 0" result="hardAlpha"/>
<feOffset dx="2.12735" dy="-2.12735"/>
<feGaussianBlur stdDeviation="2.12735"/>
<feComposite in2="hardAlpha" operator="arithmetic" k2="-1" k3="1"/>
<feColorMatrix type="matrix" values="0 0 0 0 0.203402 0 0 0 0 0.203402 0 0 0 0 0.203402 0 0 0 0.5 0"/>
<feBlend mode="normal" in2="shape" result="effect1_innerShadow_46_682"/>
<feColorMatrix in="SourceAlpha" type="matrix" values="0 0 0 0 0 0 0 0 0 0 0 0 0 0 0 0 0 0 127 0" result="hardAlpha"/>
<feOffset dx="-2.12735" dy="2.12735"/>
<feGaussianBlur stdDeviation="2.12735"/>
<feComposite in2="hardAlpha" operator="arithmetic" k2="-1" k3="1"/>
<feColorMatrix type="matrix" values="0 0 0 0 0.645312 0 0 0 0 0.645312 0 0 0 0 0.645312 0 0 0 0.5 0"/>
<feBlend mode="normal" in2="effect1_innerShadow_46_682" result="effect2_innerShadow_46_682"/>
</filter>
<linearGradient id="paint0_linear_46_682" x1="11.9679" y1="5.25" x2="11.9679" y2="18.75" gradientUnits="userSpaceOnUse">
<stop stop-color="#636363"/>
<stop offset="1"/>
</linearGradient>
<linearGradient id="paint1_linear_46_682" x1="3.57046" y1="15.8403" x2="6.44866" y2="16.2718" gradientUnits="userSpaceOnUse">
<stop stop-color="#9F9261"/>
<stop offset="1" stop-color="#F0E3B0"/>
</linearGradient>
</defs>
</svg>
