<svg width="24" height="24" viewBox="0 0 24 24" fill="none" xmlns="http://www.w3.org/2000/svg">
<g filter="url(#filter0_ii_46_583)">
<path d="M11.0896 6.07301C11.0896 5.75409 11.3481 5.49556 11.6671 5.49556H21.9225C22.2415 5.49556 22.5 5.75409 22.5 6.07301V21.4881C22.5 21.8071 22.2415 22.0656 21.9225 22.0656H11.667C11.3481 22.0656 11.0896 21.8071 11.0896 21.4881V6.07301Z" fill="url(#paint0_linear_46_583)"/>
</g>
<path d="M13.8441 8.67563C13.8441 8.25306 14.1744 7.91049 14.5818 7.91049H19.0076C19.415 7.91049 19.7453 8.25306 19.7453 8.67563V9.0582C19.7453 9.48078 19.415 9.82334 19.0076 9.82334H14.5818C14.1744 9.82334 13.8441 9.48078 13.8441 9.0582V8.67563Z" fill="#FDF7F5"/>
<path d="M13.8441 12.1188C13.8441 11.6962 14.1744 11.3536 14.5818 11.3536H19.0076C19.415 11.3536 19.7453 11.6962 19.7453 12.1188V12.5013C19.7453 12.9239 19.415 13.2665 19.0076 13.2665H14.5818C14.1744 13.2665 13.8441 12.9239 13.8441 12.5013V12.1188Z" fill="#FDF7F5"/>
<path d="M13.8441 15.5619C13.8441 15.1393 14.1744 14.7968 14.5818 14.7968H19.0076C19.415 14.7968 19.7453 15.1393 19.7453 15.5619V15.9445C19.7453 16.3671 19.415 16.7096 19.0076 16.7096H14.5818C14.1744 16.7096 13.8441 16.3671 13.8441 15.9445V15.5619Z" fill="#FDF7F5"/>
<path d="M14.1722 19.7701C14.1722 19.3476 14.533 19.005 14.9781 19.005H18.2017C18.6468 19.005 19.0076 19.3476 19.0076 19.7701V22.0656H14.1722V19.7701Z" fill="#FDF7F5"/>
<path d="M1.5 2.45245C1.5 2.13353 1.75853 1.875 2.07745 1.875H12.3329C12.6519 1.875 12.9104 2.13353 12.9104 2.45245V21.5475C12.9104 21.8665 12.6519 22.125 12.3329 22.125H2.07745C1.75853 22.125 1.5 21.8665 1.5 21.5475V2.45245Z" fill="url(#paint1_linear_46_583)"/>
<g filter="url(#filter1_ii_46_583)">
<rect x="3.7034" y="8.70224" width="2.77671" height="2.27386" rx="0.577451" fill="#D9D9D9"/>
<rect x="3.7034" y="12.6437" width="2.77671" height="2.27386" rx="0.577451" fill="#D9D9D9"/>
<rect x="7.79535" y="8.70224" width="2.77671" height="2.27386" rx="0.577451" fill="#D9D9D9"/>
<rect x="7.79535" y="12.6437" width="2.77671" height="2.27386" rx="0.577451" fill="#D9D9D9"/>
<rect x="3.7034" y="8.70221" width="2.77671" height="2.27386" rx="0.577451" fill="#D9D9D9"/>
<rect x="3.7034" y="4.76093" width="2.77671" height="2.27386" rx="0.577451" fill="#D9D9D9"/>
<rect x="3.7034" y="12.6436" width="2.77671" height="2.27386" rx="0.577451" fill="#D9D9D9"/>
<rect x="7.79535" y="8.70221" width="2.77671" height="2.27386" rx="0.577451" fill="#D9D9D9"/>
<rect x="7.79535" y="4.76093" width="2.77671" height="2.27386" rx="0.577451" fill="#D9D9D9"/>
<rect x="7.79535" y="12.6436" width="2.77671" height="2.27386" rx="0.577451" fill="#D9D9D9"/>
<path d="M4.54285 18.1797C4.54285 17.7439 4.88342 17.3906 5.30354 17.3906H9.107C9.52712 17.3906 9.86769 17.7439 9.86769 18.1797V22.1249H4.54285V18.1797Z" fill="url(#paint2_linear_46_583)"/>
</g>
<defs>
<filter id="filter0_ii_46_583" x="10.5121" y="4.91809" width="12.5653" height="17.725" filterUnits="userSpaceOnUse" color-interpolation-filters="sRGB">
<feFlood flood-opacity="0" result="BackgroundImageFix"/>
<feBlend mode="normal" in="SourceGraphic" in2="BackgroundImageFix" result="shape"/>
<feColorMatrix in="SourceAlpha" type="matrix" values="0 0 0 0 0 0 0 0 0 0 0 0 0 0 0 0 0 0 127 0" result="hardAlpha"/>
<feOffset dx="0.577451" dy="-0.577451"/>
<feGaussianBlur stdDeviation="0.481209"/>
<feComposite in2="hardAlpha" operator="arithmetic" k2="-1" k3="1"/>
<feColorMatrix type="matrix" values="0 0 0 0 0 0 0 0 0 0.581217 0 0 0 0 0.565294 0 0 0 0.45 0"/>
<feBlend mode="normal" in2="shape" result="effect1_innerShadow_46_583"/>
<feColorMatrix in="SourceAlpha" type="matrix" values="0 0 0 0 0 0 0 0 0 0 0 0 0 0 0 0 0 0 127 0" result="hardAlpha"/>
<feOffset dx="-0.577451" dy="0.577451"/>
<feGaussianBlur stdDeviation="0.481209"/>
<feComposite in2="hardAlpha" operator="arithmetic" k2="-1" k3="1"/>
<feColorMatrix type="matrix" values="0 0 0 0 0.474251 0 0 0 0 1 0 0 0 0 0.985596 0 0 0 0.45 0"/>
<feBlend mode="normal" in2="effect1_innerShadow_46_583" result="effect2_innerShadow_46_583"/>
</filter>
<filter id="filter1_ii_46_583" x="2.95153" y="4.00906" width="8.37239" height="18.8677" filterUnits="userSpaceOnUse" color-interpolation-filters="sRGB">
<feFlood flood-opacity="0" result="BackgroundImageFix"/>
<feBlend mode="normal" in="SourceGraphic" in2="BackgroundImageFix" result="shape"/>
<feColorMatrix in="SourceAlpha" type="matrix" values="0 0 0 0 0 0 0 0 0 0 0 0 0 0 0 0 0 0 127 0" result="hardAlpha"/>
<feOffset dx="0.751867" dy="-0.751867"/>
<feGaussianBlur stdDeviation="0.751867"/>
<feComposite in2="hardAlpha" operator="arithmetic" k2="-1" k3="1"/>
<feColorMatrix type="matrix" values="0 0 0 0 0.880111 0 0 0 0 0.880111 0 0 0 0 0.880111 0 0 0 0.8 0"/>
<feBlend mode="normal" in2="shape" result="effect1_innerShadow_46_583"/>
<feColorMatrix in="SourceAlpha" type="matrix" values="0 0 0 0 0 0 0 0 0 0 0 0 0 0 0 0 0 0 127 0" result="hardAlpha"/>
<feOffset dx="-0.751867" dy="0.751867"/>
<feGaussianBlur stdDeviation="1.1278"/>
<feComposite in2="hardAlpha" operator="arithmetic" k2="-1" k3="1"/>
<feColorMatrix type="matrix" values="0 0 0 0 1 0 0 0 0 1 0 0 0 0 1 0 0 0 1 0"/>
<feBlend mode="normal" in2="effect1_innerShadow_46_583" result="effect2_innerShadow_46_583"/>
</filter>
<linearGradient id="paint0_linear_46_583" x1="12.4049" y1="5.49556" x2="28.2317" y2="24.5857" gradientUnits="userSpaceOnUse">
<stop stop-color="#37C9C5"/>
<stop offset="1" stop-color="#37C9C5"/>
</linearGradient>
<linearGradient id="paint1_linear_46_583" x1="2.13548" y1="1.875" x2="32.108" y2="27.2902" gradientUnits="userSpaceOnUse">
<stop stop-color="#04C483"/>
<stop offset="1" stop-color="#03895C"/>
</linearGradient>
<linearGradient id="paint2_linear_46_583" x1="7.20527" y1="13.465" x2="7.20527" y2="21.6157" gradientUnits="userSpaceOnUse">
<stop stop-color="white"/>
<stop offset="1" stop-color="#EBE8E3"/>
</linearGradient>
</defs>
</svg>
